<svg width="28" height="28" viewBox="0 0 28 28" fill="none" xmlns="http://www.w3.org/2000/svg">
<g clip-path="url(#clip0_1132_731)">
<path d="M27.6863 16.7991C29.2248 9.23035 24.3363 1.84745 16.7676 0.30895C9.19881 -1.22956 1.81591 3.65893 0.277409 11.2277C-1.2611 18.7964 3.62739 26.1793 11.1961 27.7178C18.7649 29.2563 26.1478 24.3679 27.6863 16.7991Z" fill="#F2992F"/>
<path d="M21.0249 13.7968L19.5303 12.3021C19.4167 12.1885 19.2331 12.1885 19.1195 12.3021C19.0059 12.4158 19.0059 12.5993 19.1195 12.7129L20.1159 13.7093H7.18443C7.02273 13.7093 6.896 13.8405 6.896 13.9978C6.896 14.1551 7.0271 14.2862 7.18443 14.2862H20.1203L19.1239 15.2826C19.0671 15.3394 19.0408 15.4137 19.0408 15.488C19.0408 15.5623 19.0671 15.6366 19.1239 15.6934C19.2375 15.8071 19.421 15.8071 19.5347 15.6934L21.0293 14.1988C21.1385 14.0896 21.1385 13.8973 21.0293 13.788L21.0249 13.7968Z" fill="white"/>
</g>
<defs>
<clipPath id="clip0_1132_731">
<rect width="28" height="28" fill="white"/>
</clipPath>
</defs>
</svg>
