<svg width="21" height="22" viewBox="0 0 21 22" fill="none" xmlns="http://www.w3.org/2000/svg">
<path d="M20.34 11C20.34 5.38995 15.78 0.829956 10.17 0.829956C4.55996 0.829955 -3.45316e-05 5.38995 -3.47768e-05 11C-3.5022e-05 16.61 4.55996 21.17 10.17 21.17C15.78 21.17 20.34 16.61 20.34 11ZM10.17 19.83C5.29996 19.83 1.33996 15.87 1.33996 11C1.33996 6.12995 5.29996 2.16995 10.17 2.16995C15.04 2.16995 18.99 6.12995 18.99 11C18.99 15.87 15.03 19.83 10.17 19.83Z" fill="#F2992F"/>
<path d="M12.7799 11.4699C13.0299 11.2199 13.0299 10.7699 12.7799 10.5199L8.98991 6.7299C8.85991 6.5999 8.68991 6.52991 8.51991 6.52991C8.34991 6.52991 8.16991 6.5999 8.04991 6.7299C7.79991 6.9799 7.79991 7.42992 8.04991 7.67992L11.3599 10.9899L8.04991 14.2999C7.91991 14.4299 7.84991 14.5999 7.84991 14.7699C7.84991 14.9399 7.91991 15.1199 8.04991 15.2399C8.17991 15.3699 8.3499 15.4399 8.5199 15.4399C8.6899 15.4399 8.86991 15.3699 8.98991 15.2399L12.7799 11.4499L12.7799 11.4699Z" fill="#F2992F"/>
</svg>
