<svg width="177" height="30" viewBox="0 0 177 30" fill="none" xmlns="http://www.w3.org/2000/svg">
<g clip-path="url(#clip0_1077_544)">
<path d="M46.0149 8.22864L44.7342 14.8169C44.0885 14.7372 43.5336 14.7001 43.0693 14.7001C41.415 14.7001 40.0916 15.0929 39.0991 15.8733C38.1065 16.659 37.4395 17.896 37.1033 19.5895L35.0862 29.4532H27.7274L31.9111 8.5684H38.8856L38.4214 10.883C40.177 9.1099 42.7064 8.22333 46.0149 8.22333V8.22864Z" fill="white"/>
<path d="M70.4127 8.57371L66.229 29.4585H59.2544L59.6813 27.4943C58.0057 29.0338 55.9779 29.8089 53.5979 29.8089C52.0504 29.8089 50.5936 29.432 49.2382 28.6728C47.8828 27.9136 46.7888 26.82 45.967 25.376C45.1399 23.9374 44.729 22.2439 44.729 20.2902C44.729 18.0287 45.236 15.9795 46.2605 14.1426C47.2798 12.3058 48.6619 10.8618 50.4068 9.80535C52.1518 8.75421 54.0515 8.22333 56.122 8.22333C59.1691 8.22333 61.3089 9.1736 62.5523 11.0742L63.0592 8.5684H70.418L70.4127 8.57371ZM59.7614 22.2916C60.6899 21.214 61.1542 19.8124 61.1542 18.0924C61.1542 16.8607 60.7966 15.8839 60.0869 15.1619C59.3772 14.4452 58.4006 14.0842 57.1626 14.0842C55.6898 14.0842 54.4891 14.6257 53.5606 15.7034C52.6321 16.7811 52.1678 18.1932 52.1678 19.9398C52.1678 21.1715 52.5254 22.143 53.2351 22.8491C53.9448 23.5551 54.9214 23.9108 56.1594 23.9108C57.6322 23.9108 58.8329 23.3693 59.7614 22.2916Z" fill="white"/>
<path d="M96.6726 8.57373L83.8494 29.4585H76.2185L71.7627 8.57373H79.0414L81.5975 21.3679L89.3832 8.57373H96.6672H96.6726Z" fill="white"/>
<path d="M119.603 8.57371L115.419 29.4585H108.444L108.871 27.4943C107.196 29.0338 105.168 29.8089 102.788 29.8089C101.24 29.8089 99.7835 29.432 98.4281 28.6728C97.0727 27.9136 95.9788 26.82 95.157 25.376C94.3298 23.9374 93.9189 22.2439 93.9189 20.2902C93.9189 18.0287 94.4259 15.9795 95.4505 14.1426C96.4697 12.3058 97.8518 10.8618 99.5968 9.80535C101.342 8.75421 103.241 8.22333 105.312 8.22333C108.359 8.22333 110.499 9.1736 111.742 11.0742L112.249 8.5684H119.608L119.603 8.57371ZM108.951 22.2916C109.88 21.214 110.344 19.8124 110.344 18.0924C110.344 16.8607 109.987 15.8839 109.277 15.1619C108.567 14.4452 107.591 14.0842 106.353 14.0842C104.88 14.0842 103.679 14.6257 102.751 15.7034C101.822 16.7811 101.358 18.1932 101.358 19.9398C101.358 21.1715 101.715 22.143 102.425 22.8491C103.135 23.5551 104.111 23.9108 105.349 23.9108C106.822 23.9108 108.023 23.3693 108.951 22.2916Z" fill="white"/>
<path d="M125.297 0.870667H132.655L126.924 29.4638H119.565L125.297 0.870667Z" fill="white"/>
<path d="M136.951 28.6303C135.297 27.8446 134.021 26.7351 133.114 25.2964C132.212 23.8577 131.759 22.1908 131.759 20.2849C131.759 17.9968 132.314 15.9423 133.424 14.1214C134.534 12.2952 136.071 10.8565 138.034 9.80535C139.998 8.75421 142.202 8.22333 144.657 8.22333C146.877 8.22333 148.814 8.61618 150.468 9.39657C152.122 10.1823 153.398 11.2865 154.299 12.7093C155.201 14.132 155.655 15.799 155.655 17.6995C155.655 19.9876 155.1 22.0474 153.99 23.8843C152.88 25.7211 151.348 27.1651 149.401 28.2216C147.448 29.2727 145.238 29.8036 142.757 29.8036C140.537 29.8036 138.6 29.4107 136.946 28.6303H136.951ZM146.786 22.2916C147.714 21.214 148.179 19.8124 148.179 18.0924C148.179 16.8607 147.832 15.8839 147.133 15.1619C146.434 14.4452 145.468 14.0842 144.23 14.0842C142.757 14.0842 141.556 14.6257 140.628 15.7034C139.699 16.7811 139.235 18.1932 139.235 19.9398C139.235 21.1715 139.582 22.143 140.281 22.8491C140.98 23.5551 141.946 23.9108 143.184 23.9108C144.657 23.9108 145.857 23.3693 146.786 22.2916Z" fill="white"/>
<path d="M159.283 29.2302C157.619 28.8427 156.322 28.3596 155.388 27.765L158.061 22.642C159.017 23.2313 160.153 23.7038 161.471 24.0488C162.789 24.3939 164.081 24.5691 165.345 24.5691C167.592 24.5691 168.718 24.0701 168.718 23.0667C168.718 22.6579 168.451 22.3553 167.923 22.1589C167.395 21.9625 166.546 21.782 165.388 21.6015C163.841 21.3201 162.565 21.0175 161.573 20.6937C160.58 20.3752 159.705 19.8284 158.958 19.0586C158.211 18.2888 157.837 17.2111 157.837 15.8202C157.837 13.4047 158.878 11.536 160.954 10.2141C163.03 8.89224 165.724 8.22864 169.028 8.22864C170.522 8.22864 171.968 8.37728 173.366 8.67458C174.764 8.97187 175.975 9.37534 177.005 9.89029L174.412 15.0133C172.656 13.9621 170.575 13.4313 168.174 13.4313C167.037 13.4313 166.194 13.5799 165.639 13.8719C165.084 14.1692 164.807 14.5461 164.807 15.008C164.807 15.4167 165.073 15.7193 165.602 15.9158C166.13 16.1069 167 16.3192 168.216 16.5528C169.711 16.8077 170.959 17.1049 171.952 17.4394C172.944 17.7739 173.809 18.326 174.545 19.0957C175.282 19.8655 175.65 20.922 175.65 22.2545C175.65 24.67 174.604 26.5334 172.512 27.8393C170.42 29.1506 167.747 29.8036 164.497 29.8036C162.688 29.8036 160.954 29.6125 159.289 29.2249L159.283 29.2302Z" fill="white"/>
<path d="M16.9427 29.7346C17.8019 29.5965 18.645 29.416 19.4615 29.1718C21.3078 28.6197 22.9301 27.8181 24.3229 26.7616L26.6068 15.3955H19.8297L19.5522 16.7864L19.1573 18.74L16.9427 29.7346Z" fill="#F2992F"/>
<path d="M18.2929 23.0189C17.2096 23.4542 15.9876 23.6825 14.6748 23.6825C12.4816 23.6825 10.774 23.1357 9.56266 22.0474C8.34599 20.9538 7.74298 19.4833 7.74298 17.6358C7.74298 15.7883 8.11652 14.2329 8.86361 12.8207C9.61069 11.4086 10.678 10.299 12.0601 9.48679C13.4422 8.67986 15.0484 8.27108 16.8841 8.27108C18.3302 8.27108 19.5842 8.49405 20.6408 8.9453C21.6974 9.39654 22.6686 10.161 23.5438 11.2387L29.0455 6.92265C26.5428 3.60996 22.6046 1.95361 17.2309 1.95361C13.8477 1.95361 10.854 2.64907 8.2446 4.03466C5.63514 5.42026 3.60734 7.34204 2.16654 9.7947C0.720402 12.2421 0 15.0239 0 18.1348C0 20.4707 0.560312 22.5411 1.68627 24.3408C2.81223 26.1405 4.39712 27.5314 6.4516 28.5241C8.50607 29.5116 10.8967 30.0053 13.6343 30.0053C14.7656 30.0053 15.8702 29.9097 16.9428 29.7398L18.2982 23.0242L18.2929 23.0189Z" fill="white"/>
<path d="M59.804 6.49796H59.1316L60.4016 0H67.7604C67.0026 3.77986 63.6728 6.49796 59.7986 6.49796H59.804Z" fill="white"/>
</g>
<defs>
<clipPath id="clip0_1077_544">
<rect width="177" height="30" fill="white"/>
</clipPath>
</defs>
</svg>
