<svg width="655" height="637" viewBox="0 0 655 637" fill="none" xmlns="http://www.w3.org/2000/svg">
<g clip-path="url(#clip0_1145_3135)">
<path d="M382 630.995C401.402 627.886 420.331 623.777 438.84 618.193C480.484 605.656 517.028 587.429 548.471 563.512L600 305.383H447.148L440.838 336.885L431.952 381.294L382 630.995V630.995Z" fill="#020D1F"/>
<path d="M412.55 478.488C388.205 488.339 360.6 493.501 330.997 493.501C281.518 493.501 243.081 481.122 215.739 456.31C188.345 431.497 174.674 398.099 174.674 356.113C174.674 314.128 183.087 278.832 200.018 246.751C216.896 214.669 240.926 189.435 272.053 171.05C303.181 152.665 339.462 143.499 380.791 143.499C413.391 143.499 441.627 148.609 465.499 158.829C489.37 169.048 511.191 186.38 531.014 210.876L655.053 112.892C598.528 37.6131 509.719 0 388.625 0C312.33 0 244.817 15.7512 186.031 47.2535C127.246 78.7558 81.5004 122.374 48.9002 178.057C16.3001 233.791 0 296.901 0 367.492C0 420.593 12.672 467.53 38.016 508.357C63.36 549.183 99.1675 580.844 145.439 603.285C191.71 625.727 245.71 636.947 307.44 636.947C332.995 636.947 357.813 634.788 382.053 630.942L412.55 478.435V478.488Z" fill="#0F2045"/>
</g>
<defs>
<clipPath id="clip0_1145_3135">
<rect width="655" height="637" fill="white"/>
</clipPath>
</defs>
</svg>
